<svg width="512" height="512" viewBox="0 0 512 512" fill="none" xmlns="http://www.w3.org/2000/svg">
<path d="M206.082 282.583C204.888 285.72 203.319 288.43 201.376 290.693C199.451 292.992 197.099 294.775 194.318 296.058C191.538 297.341 188.134 297.965 184.159 297.965C178.58 297.965 173.964 296.753 170.257 294.347C166.55 291.905 163.591 288.715 161.381 284.704C159.171 280.73 157.567 276.203 156.569 271.23C155.553 266.257 155.071 261.178 155.071 256.045C155.071 250.894 155.553 245.85 156.569 240.841C157.567 235.833 159.171 231.341 161.381 227.367C163.591 223.357 166.55 220.166 170.257 217.724C173.964 215.283 178.598 214.106 184.159 214.106C188.989 214.106 192.964 215.015 196.029 216.851C199.095 218.723 201.555 220.861 203.408 223.285C205.262 225.727 206.545 228.151 207.258 230.664C207.971 233.142 208.47 235.12 208.755 236.546H254.526C252.529 217.297 245.792 202.432 234.296 191.952C222.818 181.472 206.527 176.143 185.442 176C173.608 176 162.932 177.907 153.467 181.775C143.985 185.607 135.858 191.043 129.085 198.03C122.312 205.016 117.108 213.411 113.472 223.267C109.836 233.088 108 244.032 108 255.991C108 267.238 109.729 277.789 113.133 287.538C116.555 297.323 121.599 305.736 128.229 312.883C134.86 320.03 142.934 325.662 152.487 329.797C162.04 333.897 173.019 336 185.442 336C196.564 336 206.474 334.129 215.172 330.439C223.852 326.714 231.159 321.848 237.077 315.788C242.994 309.728 247.485 302.902 250.551 295.363C253.617 287.841 255.167 280.177 255.167 272.495H208.951C208.256 276.06 207.312 279.464 206.082 282.583Z" fill="black"/>
<path d="M331.949 272.3H331.521L306.497 179.69H259.016L304.572 332.4H357.186L404.9 179.69H356.545L331.949 272.3Z" fill="black"/>
<rect x="20" y="20" width="472" height="472" rx="100" stroke="black" stroke-width="40"/>
</svg>
