<svg width="512" height="512" viewBox="0 0 512 512" fill="none" xmlns="http://www.w3.org/2000/svg">
<path d="M154.66 133C134.912 133 122 145.968 122 163.012C122 179.68 134.527 193.017 153.902 193.017H154.277C174.412 193.017 186.942 179.68 186.942 163.012C186.566 145.968 174.412 133 154.66 133V133Z" fill="black"/>
<path d="M124.824 204.998H182.557V378.689H124.824V204.998Z" fill="black"/>
<path d="M324.263 200.922C293.118 200.922 272.234 230.187 272.234 230.187V204.998H214.5V378.689H272.231V281.693C272.231 276.501 272.607 271.316 274.133 267.603C278.306 257.234 287.804 246.492 303.754 246.492C324.644 246.492 332.999 262.42 332.999 285.77V378.689H390.727V279.098C390.727 225.748 362.244 200.922 324.263 200.922V200.922Z" fill="black"/>
<rect x="20" y="20" width="472" height="472" rx="100" stroke="black" stroke-width="40"/>
</svg>
